# xmcd CD database file
#
# Track frame offsets:
#	150
#	27137
#	43915
#	49360
#	68132
#	81835
#	98142
#	109172
#	133787
#	142920
#	155607
#	169575
#	185490
#	200970
#	209092
#	225787
#	240880
#	251752
#	263292
#	279530
#	292015
#	305835
#	317090
#
# Disc length: 4417 seconds
#
# Revision: 0
# Processed by: cddbd v1.5.1PL0 Copyright (c) Steve Scherf et al.
# Submitted via: CDex 1.51
#
DISCID=53113f17
DTITLE=Choir of York Minster - Christmas Joy Vol.1
DYEAR=1997
DGENRE=Christmas
TTITLE0=O Come, All Ye Faithful
TTITLE1=Holy Thorn That Blooms
TTITLE2=Up!, Good Christen Folk, And Listen
TTITLE3=It Came Upon The Midnight Clear
TTITLE4=That Virgin's Child
TTITLE5=The Lord at First did Adam Make
TTITLE6=Sweet Was The Song
TTITLE7=Once in Royal David's City
TTITLE8=Ding Dong! Merrily on High
TTITLE9=This is The Truth sent from Above
TTITLE10=Good King Wenceslas
TTITLE11=Sing Lullaby
TTITLE12=Sans Day Carol
TTITLE13=All This Time
TTITLE14=O Little Town of Bethlehem
TTITLE15=God Rest You Merry, Gentelmen
TTITLE16=There is no Rose of such Virtue
TTITLE17=We Three Kings
TTITLE18=Sing Lullaby (Howells)
TTITLE19=Watts' Cradle Song
TTITLE20=Silent Night
TTITLE21=The Shepherds Heard The Angels
TTITLE22=Hark! The Herald Angels Sing
EXTD=YEAR: 1997
EXTT0=
EXTT1=
EXTT2=
EXTT3=
EXTT4=
EXTT5=
EXTT6=
EXTT7=
EXTT8=
EXTT9=
EXTT10=
EXTT11=
EXTT12=
EXTT13=
EXTT14=
EXTT15=
EXTT16=
EXTT17=
EXTT18=
EXTT19=
EXTT20=
EXTT21=
EXTT22=
PLAYORDER=
